<svg viewBox="0 0 344 344" xmlns="http://www.w3.org/2000/svg">
  <path fill="#eee" d="M338.819 172c0 92.131-74.688 166.819-166.819 166.819C79.869 338.819 5.181 264.131 5.181 172 5.181 79.869 79.869 5.181 172 5.181c92.131 0 166.819 74.688 166.819 166.819Z"/>
  <path fill="none" stroke="#4c4c4c" stroke-dasharray="0,14" stroke-linecap="round" stroke-width="10" d="M300.267 266.997c-7.16-14.48-12.98-17.899-16.233-55.136-8.821-100.994-50.951-115.634-105.183-115.752-52.96-.117-73.28 48.794-123.166 47.913" opacity=".25"/>
  <g stroke="#ce4c4c">
    <path fill="#fff" stroke-width="3" d="M270.411 243.486c5.229-8.564 17.573-17.942 34.227-16.474-2.923-5.674-3.978-7.862-6.659-13.806-7.015 12.223-17.792 13.546-29.09 10.386.122 7.795 1.232 12.372 1.522 19.894z"/>
    <path fill="none" stroke-linecap="round" stroke-width="2" d="M281.607 237.117c4.603-3.572 10.685-5.692 15.489-6.226m-19.186-9.481c5.815.017 9.708-1.859 13.554-5.528"/>
  </g>
  <path fill="#fff" fill-rule="evenodd" stroke="#ce4c4c" stroke-width="3" d="M260.338 187.901c7.3-44.349-27.453-77.462-69.91-78.56-42.49-1.1-77.539 21.782-76.43 37.551 1.11 15.77 29.314 22.597 33.526 24.572.895.419-4.116-1.134-4.93-1.396-4.878-1.569-11.893-5.15-15.029-6.787 6.47 3.175 12.43 7.99 11.886 18.04 51.348 47.476 102.775-7.023 120.887 6.58z"/>
  <path fill="#fff" fill-rule="evenodd" stroke="#4c4c4c" stroke-width="3" d="M58.537 145.02c-5.878-.095-9.577 2.47-11.428 5.229-4.298 6.407-2.323 15.75 5.93 21.979 5.437 4.104 9.908 7.663 14.649 17.083 7.105 14.119 3.252 37.079 9.6 51.917 8.158 19.073 26.709 19.63 43.793 17.87 17.752-1.83 34.038-5.843 49.555-3.58 29.429 4.29 57.442 12.118 92.676 56.133 5.384-3.51 13.555-9.517 18.839-14.425-10.503-25.09-13.926-74.918-13.207-85.805.727-11.011-1.584-23.51-14.66-25.827-12.972-2.298-44.793 19.16-76.351 14.72-30.198-4.249-37.83-23.457-56.091-30.19-10.48-3.864-23.569-1.383-31.048-.6-1.43.15-1.67-.6-2.473-2.073-7.533-13.827-19.066-22.26-29.784-22.432zm33.01-3.625c-5.483 1.182-2.414 20.137-1.862 26.674.065.77.661 1.332 1.894 1.226 3.218-.278 9.887-1.309 15.85-1.358-3.752-9.228-8.796-25.209-14.718-26.576-.407-.094-.72-.06-1.164.034z"/>
  <path fill="#4c4c4c" d="M249.734 193.684a6.03 6.03 0 0 0-6.017 6.017 6.03 6.03 0 0 0 6.017 6.018 6.029 6.029 0 0 0 6.018-6.018 6.03 6.03 0 0 0-6.018-6.017zm0 1.5v4.517h4.518a4.506 4.506 0 0 1-4.518 4.518V199.7h-4.517a4.506 4.506 0 0 1 4.517-4.517z" color="#000" style="-inkscape-stroke:none"/>
  <path fill="#fff" fill-rule="evenodd" stroke="#4c4c4c" stroke-linecap="round" stroke-width="3" d="M29.296 85.558c22.162 9.59 19.473 25.67 11.162 42.308-4.45 8.91.335 18.142 9.065 18.267 11.657.167 19.601-10.066 18.12-25.014-.106-1.064 1.113-2.092 1.907-2.404 13.598-5.333 19.609-8.771 31.997-16.941 12.923-8.524 46.244-21.733 77.13-20.702 30.886 1.031 51.29 7.824 63.997 12.67 9.164 3.495 19.231 9.864 27.945 4.848 9.937-5.72-3.341-39.364-34.776-40.065-42.847-.955-53.792 6.389-99.93 8.3-46.137 1.91-72.206-9.758-91.53-2.266-5.637 6.836-9.125 11.325-15.087 20.999Zm56.01 26.425s-13.182 5.926-14.25 6.359c-.767.31-1.258 1.44-.928 2.673 1.194 4.457 3.33 23.05 7.876 24.374 1.533.447 2.202.32 3.44-.395 4.566-2.635 3.861-33.01 3.861-33.01z"/>
  <path fill="none" stroke="#4c4c4c" stroke-linecap="round" stroke-width="3" d="M195.605 6.882c15.023 2.263 49.835 12.828 71.866 50.986 22.03 38.157 17.065 122.14 28.956 151.607 8.347 20.686 17.475 32.757 22.752 39.935"/>
  <path fill="none" stroke="#4c4c4c" stroke-width="4" d="M338.819 172c0 92.131-74.688 166.819-166.819 166.819C79.869 338.819 5.181 264.131 5.181 172 5.181 79.869 79.869 5.181 172 5.181c92.131 0 166.819 74.688 166.819 166.819z"/>
</svg>
